# xmcd CD database file
#
# Track frame offsets:
#	150
#	17509
#	32343
#	42791
#	64631
#	84901
#	108859
#	133160
#	160595
#	172447
#	186972
#
# Disc length: 2655 seconds
#
# Revision: 1
# Processed by: cddbd v1.5.2PL0 Copyright (c) Steve Scherf et al.
# Submitted via: CDex 1.70beta2
#
DISCID=820a5d0b
DTITLE=Julien Kasper - Flipping Time
DYEAR=2007
DGENRE=Blues
TTITLE0=Home Place
TTITLE1=Flipping Time
TTITLE2=You Know
TTITLE3=And Now We Know
TTITLE4=Ten Years Late
TTITLE5=Foot Clappin'
TTITLE6=Talkin' About What
TTITLE7=Blues For Charles
TTITLE8=Jackalope
TTITLE9=Bigger Than You
TTITLE10=The Wayward Way
EXTD=YEAR: 2007
EXTT0=
EXTT1=
EXTT2=
EXTT3=
EXTT4=
EXTT5=
EXTT6=
EXTT7=
EXTT8=
EXTT9=
EXTT10=
PLAYORDER=
